<?xml version="1.0" encoding="UTF-8"?>
<svg viewBox="0 0 15.121 16.468" xmlns="http://www.w3.org/2000/svg" width="15.419" height="16.92">
<g transform="translate(.5 .5)" fill="none" stroke="#037f8c" stroke-linecap="round" stroke-linejoin="round">
<path transform="translate(-1.172 .685)" d="M9.954,9,7.235,11.718,6,10.483" data-name="Icon feather-check"/>
<g data-name="Icon feather-calendar">
<path transform="translate(-4.5 -4.653)" d="M6.069,6H17.052a1.569,1.569,0,0,1,1.569,1.569V18.552a1.569,1.569,0,0,1-1.569,1.569H6.069A1.569,1.569,0,0,1,4.5,18.552V7.569A1.569,1.569,0,0,1,6.069,6Z" data-name="Pfad 54"/>
<path transform="translate(-13.801 -3)" d="m24 3v2.694" data-name="Pfad 55"/>
<path transform="translate(-8.077 -3)" d="m12 3v2.694" data-name="Pfad 56"/>
<path transform="translate(-4.5 -8.813)" d="m4.5 15h14.121" data-name="Pfad 57"/>
</g>
</g>
</svg>
