<?xml version="1.0" encoding="UTF-8"?>
<svg viewBox="0 0 23.738 26.264" xmlns="http://www.w3.org/2000/svg" width="23.738" height="26.264">
<g transform="translate(-3033.5 -923.5)">
<g transform="translate(21 -15)" fill="none" stroke="#037f8c" data-name="Gruppe 37">
<g transform="translate(3008.5 936)" stroke-linecap="round" stroke-linejoin="round">
<path transform="translate(0 -.474)" d="M7.026,6H24.711a2.526,2.526,0,0,1,2.526,2.526V26.211a2.526,2.526,0,0,1-2.526,2.526H7.026A2.526,2.526,0,0,1,4.5,26.211V8.526A2.526,2.526,0,0,1,7.026,6Z" data-name="Pfad 54"/>
<path transform="translate(-3.079)" d="m24 3v5.053" data-name="Pfad 55"/>
<path transform="translate(-1.184)" d="m12 3v5.053" data-name="Pfad 56"/>
<path transform="translate(0 -1.894)" d="m4.5 15h22.737" data-name="Pfad 57"/>
</g>
<path transform="translate(3015.1 946.5)" d="M7.994,15.113V11.367h2.5v3.746h3.121V10.118h1.873L9.243,4.5,3,10.118H4.873v4.994Z" data-name="Icon material-home"/>
</g>
</g>
</svg>
