<?xml version="1.0" encoding="UTF-8"?>
<svg viewBox="0 0 22.161 24.512" xmlns="http://www.w3.org/2000/svg" width="22.161" height="24.8" >
<g transform="translate(-4 -2.5)" fill="none" stroke="#037f8c" stroke-linecap="round" stroke-linejoin="round">
<path transform="translate(-3.893)" d="M29.554,6.527A3.527,3.527,0,1,1,26.027,3,3.527,3.527,0,0,1,29.554,6.527Z" data-name="Pfad 49"/>
<path transform="translate(0 -2.271)" d="m11.554 17.027a3.527 3.527 0 1 1-3.527-3.527 3.527 3.527 0 0 1 3.527 3.527z" data-name="Pfad 50"/>
<path transform="translate(-3.893 -4.542)" d="m29.554 27.527a3.527 3.527 0 1 1-3.527-3.527 3.527 3.527 0 0 1 3.527 3.527z" data-name="Pfad 51"/>
<path transform="translate(-1.813 -3.734)" d="m12.885 20.265 8.029 4.679" data-name="Pfad 52"/>
<path transform="translate(-1.813 -1.463)" d="m20.9 9.765-8.018 4.679" data-name="Pfad 53"/>
</g>
</svg>
